<svg width="100" height="100" viewBox="0 0 100 100" fill="none" xmlns="http://www.w3.org/2000/svg">
<g id="Illustration">
<g id="Fielder 1">
<g id="Group 18142">
<path id="Vector 722" d="M60.6007 68.5999H59.0007L58.2007 71.3999C58.7607 72.1999 58.7674 73.1332 58.7007 73.4999C58.7007 74.6199 59.3674 74.8999 59.7007 74.8999C60.8207 74.5799 60.7674 72.2999 60.6007 71.1999V68.5999Z" fill="#0B0B0B" stroke="#0B0B0B" stroke-width="0.5" stroke-linecap="round" stroke-linejoin="round"/>
<path id="Vector 717" d="M38.7006 45.6999L37.7006 45.7999L37.5006 46.1999C35.9806 46.1199 35.7339 44.8332 35.8006 44.1999C35.2406 42.9199 36.4339 41.7332 37.1006 41.2999C37.4206 40.3399 38.0339 40.3666 38.3006 40.4999C39.6606 41.5399 38.2672 43.6666 37.4006 44.5999C38.7606 45.3999 38.8339 45.6666 38.7006 45.6999Z" fill="#0B0B0B" stroke="#0B0B0B" stroke-width="0.5" stroke-linecap="round" stroke-linejoin="round"/>
<path id="Vector 715" d="M42.2003 43.7999C42.2803 42.8399 44.7003 39.7332 45.9003 38.2999L48.8004 40.4999C47.2004 42.4199 47.2004 43.6999 47.4004 44.0999L52.7004 50.1999C51.4204 52.9199 48.9004 54.4665 47.8004 54.8999C45.6404 55.5399 44.8337 54.7665 44.7004 54.2999C44.3004 52.5399 42.3337 51.2999 41.4004 50.8999L41.0004 51.3999L42.2003 52.1999V53.6999C41.2403 54.0999 39.667 53.9999 39.0003 53.8999V50.1999C38.9203 49.2399 39.6337 47.3999 40.0003 46.5999C41.1203 47.3999 42.1337 47.2665 42.5003 47.0999C43.5403 46.2999 42.7337 44.5665 42.2003 43.7999Z" fill="#0B0B0B" stroke="#0B0B0B" stroke-width="0.5" stroke-linecap="round" stroke-linejoin="round"/>
<path id="Vector 716" d="M39.0007 41.8999C40.1007 42.1332 42.3207 43.0599 42.4007 44.8999C42.3007 45.4999 41.5207 46.6399 39.2007 46.3999C38.7674 46.4999 37.8607 46.5599 37.7007 45.9999" stroke="#0B0B0B" stroke-width="0.5" stroke-linecap="round" stroke-linejoin="round"/>
<path id="Vector 718" d="M46.2007 38.4999L47.7007 36.0999C47.8007 35.6666 48.1407 34.6199 48.7007 33.8999L52.7007 28.7999C52.6674 27.8332 52.7007 26.6799 53.9007 26.1999C53.734 27.0666 54.0807 27.9999 54.8007 27.9999C55.1674 27.9666 55.9207 27.8999 56.0007 27.4999L55.7007 28.0999C55.3674 28.2666 54.7007 28.6199 54.7007 28.6999C54.6007 28.8999 54.3407 29.3399 54.1007 29.4999C53.734 29.7666 52.9007 30.6399 52.5007 31.9999C52.1674 32.7332 51.4607 34.3399 51.3007 34.8999C50.9674 35.4666 50.2207 36.6999 49.9007 37.0999C49.4674 37.8999 48.5407 39.5599 48.3007 39.7999" stroke="#0B0B0B" stroke-width="0.5" stroke-linecap="round" stroke-linejoin="round"/>
<path id="Vector 719" d="M39.5006 54.1999C39.4672 55.0665 39.3606 56.9399 39.2006 57.4999C39.1672 57.5999 39.1606 58.3799 39.4006 60.6999V62.3999L38.5006 63.6999C38.4007 64.3332 38.3207 65.7399 38.8006 66.2999C39.1006 66.3332 39.7406 66.2799 39.9006 65.7999C39.9339 65.5332 39.9206 64.9399 39.6006 64.6999M39.6006 64.6999C39.3673 64.7332 38.9206 65.0999 39.0006 66.2999M39.6006 64.6999C39.5006 64.4665 39.3806 63.9599 39.7006 63.7999C39.9006 63.6999 40.2806 63.6799 40.2006 64.3999C40.2339 64.5665 40.3806 64.9199 40.7006 64.9999C40.7339 64.6999 40.8006 63.9599 40.8006 63.3999L40.7006 61.7999L41.4006 58.5999C41.5673 57.4332 41.8606 54.8999 41.7006 54.0999" stroke="#0B0B0B" stroke-width="0.5" stroke-linecap="round" stroke-linejoin="round"/>
<path id="Vector 720" d="M45.6006 55.1999C45.6006 55.3999 45.7006 55.8599 46.1006 56.0999C45.9006 56.3999 45.5806 57.2399 45.9006 58.1999C46.2339 61.1666 48.4006 67.6999 48.4006 67.6999M48.4006 67.6999L46.4006 75.3999L49.6006 75.8999C50.2707 74.1723 51.1335 71.8192 51.9795 69.2999M48.4006 67.6999C48.9606 67.6999 49.2339 61.3666 49.3006 58.1999L48.0006 57.8999M51.9795 69.2999C52.3865 68.088 52.7896 66.8376 53.1655 65.5999C54.4959 61.2191 55.4856 56.9968 55.1006 55.1999C54.9673 54.2999 54.2806 52.1799 52.6006 50.8999M53.1655 65.5999L58.9006 68.6999L58.3006 71.3999L51.9795 69.2999" stroke="#0B0B0B" stroke-width="0.5" stroke-linecap="round" stroke-linejoin="round"/>
<path id="Subtract" d="M55 25.6C55.6627 25.6 56.2002 26.1374 56.2002 26.8002C56.2001 27.4628 55.6627 28.0004 55 28.0004C54.3375 28.0002 53.7999 27.4627 53.7998 26.8002C53.7998 26.1375 54.3374 25.6001 55 25.6ZM55.6035 25.9506C55.5761 25.9492 55.5524 25.97 55.5508 25.9974C55.5407 26.193 55.4889 26.5307 55.3672 26.8715C55.2451 27.2131 55.0551 27.5527 54.7715 27.7601C54.7492 27.7764 54.7445 27.8072 54.7607 27.8295C54.7771 27.8512 54.808 27.857 54.8301 27.8412C55.1369 27.6168 55.3368 27.2556 55.4619 26.9056C55.5871 26.5552 55.6398 26.2079 55.6504 26.0033C55.6518 25.976 55.6307 25.9523 55.6035 25.9506ZM55.2031 25.7504C55.1757 25.749 55.152 25.7699 55.1504 25.7972C55.1403 25.9996 55.0885 26.334 54.9668 26.6713C54.8448 27.0089 54.6544 27.3449 54.3701 27.5599C54.3482 27.5766 54.3438 27.6083 54.3604 27.6302C54.377 27.6521 54.4087 27.6565 54.4307 27.64C54.7368 27.4084 54.9363 27.0513 55.0615 26.7045C55.1867 26.3575 55.2394 26.0145 55.25 25.8031C55.2514 25.7756 55.2306 25.7519 55.2031 25.7504Z" fill="#0B0B0B"/>
<path id="Vector 721" d="M48.1003 78.7999C49.0603 78.5599 49.0336 76.6999 48.9003 75.7999L46.7003 75.4999C46.6203 76.0599 45.6669 76.7332 45.2003 76.9999C44.3203 77.4799 44.3669 78.1332 44.5003 78.3999C45.0603 79.1999 47.1336 78.9999 48.1003 78.7999Z" fill="#0B0B0B" stroke="#0B0B0B" stroke-width="0.5" stroke-linecap="round" stroke-linejoin="round"/>
<path id="Ground" d="M11.1997 80 L88.5997 80" stroke="#0B0B0B" stroke-width="0.5" stroke-linecap="round" stroke-linejoin="round"/>
<g id="Ball"><circle cx="59.2" cy="22.6" r="1.8" fill="#0B0B0B"/><path d="M57.5 20.9C57.47 21.57 57.16 23.08 56.2 23.8" stroke="#E5E5EA" stroke-width="0.2" stroke-linecap="round"/><path d="M58.1 20.5C58.07 21.17 57.76 22.68 56.8 23.4" stroke="#E5E5EA" stroke-width="0.2" stroke-linecap="round"/></g>
</g>
</g>
</g>
</svg>
