<svg width="100" height="100" viewBox="0 0 100 100" fill="none" xmlns="http://www.w3.org/2000/svg">
<g id="Illustration">
<g id="Fielder 2">
<g id="Group 18136">
<g id="Group 18129">
<g id="Vector 594">
<path d="M33.181 66.6316C33.5002 66.472 34.3301 66.2485 35.0962 66.6316L36.1735 67.4695L36.772 67.7089C36.8104 67.9963 36.834 68.4216 36.7845 68.7862C36.731 69.1809 36.5919 69.5044 36.2932 69.5044H31.3855C31.2947 69.3358 31.23 69.0846 31.2564 68.7862C31.3113 68.1663 31.7589 67.3426 33.181 66.6316Z" fill="#0B0B0B"/>
<path d="M36.7845 68.7862C36.834 68.4216 36.8104 67.9963 36.772 67.7089L36.1735 67.4695L35.0962 66.6316C34.3301 66.2485 33.5002 66.472 33.181 66.6316C31.7589 67.3426 31.3113 68.1663 31.2564 68.7862C31.23 69.0846 31.2947 69.3358 31.3855 69.5044H36.2932C36.5919 69.5044 36.731 69.1809 36.7845 68.7862ZM31.2564 68.7862H36.7845" stroke="#0B0B0B" stroke-width="0.239401"/>
</g>
<path id="Vector 588" d="M43.9542 52.6266L44.1623 52.7652L44.2042 52.7023L44.2042 52.6266L43.9542 52.6266ZM43.9542 48.9159L44.2042 48.9159V48.9158L43.9542 48.9159ZM40.842 47.8385L40.7814 47.596L40.701 47.6161L40.6485 47.6802L40.842 47.8385ZM39.7647 49.1553L39.5712 48.9969L39.5289 49.0487L39.518 49.1147L39.7647 49.1553ZM40.3632 50.7114V50.4614H40.3303L40.2985 50.4699L40.3632 50.7114ZM40.842 49.3947L40.7435 49.1649L40.5766 49.2364L40.593 49.4173L40.842 49.3947ZM41.9764 49.0926C42.074 48.995 42.074 48.8367 41.9764 48.7391C41.8787 48.6414 41.7204 48.6414 41.6228 48.7391L41.7996 48.9159L41.9764 49.0926ZM43.9542 46.8793L43.7042 46.8793L43.7042 48.9159L43.9542 48.9159L44.2042 48.9158L44.2042 46.8793L43.9542 46.8793ZM43.9542 48.9159L44.1524 48.7634C43.7201 48.2015 42.4472 47.1796 40.7814 47.596L40.842 47.8385L40.9026 48.0811C42.3012 47.7314 43.3904 48.5928 43.7561 49.0683L43.9542 48.9159ZM40.842 47.8385L40.6485 47.6802L39.5712 48.9969L39.7647 49.1553L39.9582 49.3136L41.0355 47.9969L40.842 47.8385ZM40.3632 50.7114V50.9614C40.5735 50.9614 40.7925 50.8273 40.9333 50.5669C41.0723 50.3096 41.1412 49.9249 41.0909 49.372L40.842 49.3947L40.593 49.4173C40.6385 49.9178 40.5678 50.1914 40.4934 50.3292C40.4206 50.4638 40.3524 50.4614 40.3632 50.4614V50.7114ZM40.842 49.3947L40.9404 49.6244C41.0824 49.5636 41.3014 49.4663 41.4981 49.3715C41.5963 49.3242 41.6915 49.2763 41.7697 49.2331C41.8367 49.196 41.9233 49.1457 41.9764 49.0926L41.7996 48.9159L41.6228 48.7391C41.628 48.7339 41.6058 48.7524 41.5279 48.7954C41.4613 48.8322 41.3755 48.8756 41.2811 48.9211C41.0928 49.0118 40.8808 49.106 40.7435 49.1649L40.842 49.3947ZM39.7647 49.1553L39.518 49.1147C39.4769 49.3652 39.4481 49.7098 39.4771 50.0285C39.4915 50.1878 39.5213 50.3508 39.5771 50.4957C39.6324 50.6394 39.7212 50.7852 39.8664 50.881L40.0041 50.6723L40.1418 50.4637C40.1146 50.4458 40.0777 50.4042 40.0437 50.316C40.0102 50.2291 39.987 50.1157 39.975 49.9833C39.951 49.7185 39.9749 49.4182 40.0114 49.1958L39.7647 49.1553ZM40.0041 50.6723L39.8664 50.881C40.0292 50.9885 40.2237 51.0076 40.4279 50.9528L40.3632 50.7114L40.2985 50.4699C40.2028 50.4955 40.1619 50.477 40.1418 50.4637L40.0041 50.6723ZM40.0041 50.6723L39.7558 50.6425C39.7317 50.8436 39.7463 51.1525 39.8635 51.4569C39.9831 51.7671 40.2139 52.0822 40.6238 52.2579L40.7223 52.0281L40.8207 51.7983C40.5603 51.6867 40.4121 51.49 40.3301 51.2772C40.2459 51.0586 40.2365 50.8332 40.2523 50.7022L40.0041 50.6723ZM40.7223 52.0281L40.4742 52.0591C40.4978 52.248 40.5842 52.5361 40.803 52.7215C40.9191 52.8199 41.0688 52.8855 41.2488 52.8885C41.4244 52.8915 41.6098 52.8348 41.8039 52.7239L41.6799 52.5069L41.5558 52.2898C41.4147 52.3704 41.3179 52.3896 41.2573 52.3886C41.2011 52.3876 41.1609 52.3694 41.1263 52.3401C41.0438 52.2702 40.9866 52.1273 40.9703 51.9971L40.7223 52.0281ZM41.6799 52.5069L41.4501 52.6054C41.5238 52.7773 41.6841 53.0175 41.9426 53.1376C42.0775 53.2003 42.2354 53.2279 42.4085 53.196C42.5791 53.1646 42.7491 53.0784 42.9172 52.9383L42.7572 52.7463L42.5971 52.5542C42.478 52.6535 42.3846 52.692 42.318 52.7043C42.254 52.7161 42.2009 52.7063 42.1533 52.6841C42.0467 52.6346 41.9557 52.5158 41.9097 52.4084L41.6799 52.5069ZM42.7572 52.7463L42.5971 52.9383C42.7436 53.0604 42.9948 53.2039 43.2828 53.226C43.5928 53.2497 43.9198 53.129 44.1623 52.7652L43.9542 52.6266L43.7462 52.4879C43.6057 52.6987 43.4538 52.7376 43.321 52.7274C43.166 52.7156 43.0101 52.6316 42.9172 52.5542L42.7572 52.7463ZM40.7223 52.0281L40.9714 52.0488C40.9899 51.8271 41.0514 51.4975 41.1693 51.2316C41.2953 50.9473 41.4339 50.8417 41.5602 50.8417V50.5917V50.3417C41.1118 50.3417 40.8514 50.7149 40.7122 51.029C40.5647 51.3616 40.4946 51.7502 40.4731 52.0073L40.7223 52.0281ZM41.5602 50.5917V50.8417C41.6222 50.8417 41.7016 50.8625 41.7494 50.9027C41.7696 50.9197 41.7849 50.9404 41.7942 50.97C41.804 51.0008 41.8112 51.0543 41.7938 51.1411L42.039 51.1902L42.2841 51.2392C42.3475 50.9224 42.2568 50.6761 42.0712 50.52C41.9055 50.3807 41.6977 50.3417 41.5602 50.3417V50.5917ZM42.039 51.1902L42.2626 51.302C42.2478 51.3315 42.2384 51.3163 42.297 51.2988C42.3471 51.2839 42.4175 51.2776 42.4919 51.2881C42.6489 51.3102 42.7328 51.3852 42.7514 51.4786L42.9966 51.4296L43.2417 51.3805C43.1647 50.9952 42.8296 50.8307 42.5616 50.793C42.4235 50.7735 42.28 50.7822 42.1543 50.8196C42.037 50.8546 41.89 50.9291 41.8154 51.0784L42.039 51.1902ZM43.9542 48.9159L43.7042 48.9158L43.7042 51.5493L43.9542 51.5493L44.2042 51.5493L44.2042 48.9159L43.9542 48.9159ZM43.9542 51.5493L43.7042 51.5493L43.7042 52.6266L43.9542 52.6266L44.2042 52.6266L44.2042 51.5493L43.9542 51.5493ZM42.9966 51.4296L43.1466 51.6296C43.1889 51.5978 43.2825 51.5528 43.396 51.5509C43.4996 51.549 43.6338 51.5824 43.7774 51.726L43.9542 51.5493L44.131 51.3725C43.8916 51.1331 43.6267 51.0468 43.3872 51.0509C43.1576 51.0549 42.9638 51.1416 42.8466 51.2296L42.9966 51.4296ZM42.039 51.1902L41.7978 51.1244L41.4387 52.4411L41.6799 52.5069L41.9211 52.5727L42.2802 51.2559L42.039 51.1902ZM42.9966 51.4296L42.7506 51.3848L42.5112 52.7016L42.7572 52.7463L43.0031 52.791L43.2425 51.4743L42.9966 51.4296Z" fill="#0B0B0B"/>
<path id="Vector 589" d="M43.954 52.6266L43.7459 52.7653L43.704 52.7023L43.704 52.6266L43.954 52.6266ZM43.954 48.9159L43.704 48.9159V48.9159H43.954ZM47.0662 47.8386L47.1268 47.596L47.2072 47.6161L47.2597 47.6802L47.0662 47.8386ZM48.1435 49.1553L48.337 48.997L48.3793 49.0487L48.3902 49.1147L48.1435 49.1553ZM47.545 50.7114V50.4614H47.5779L47.6097 50.4699L47.545 50.7114ZM47.0662 49.3947L47.1647 49.1649L47.3317 49.2364L47.3152 49.4173L47.0662 49.3947ZM45.9319 49.0926C45.8342 48.995 45.8342 48.8367 45.9319 48.7391C46.0295 48.6415 46.1878 48.6415 46.2854 48.7391L46.1086 48.9159L45.9319 49.0926ZM43.954 46.7596H44.204V48.9159H43.954H43.704V46.7596H43.954ZM43.954 48.9159L43.7558 48.7634C44.1881 48.2015 45.461 47.1796 47.1268 47.596L47.0662 47.8386L47.0056 48.0811C45.607 47.7315 44.5178 48.5929 44.1521 49.0683L43.954 48.9159ZM47.0662 47.8386L47.2597 47.6802L48.337 48.997L48.1435 49.1553L47.95 49.3136L46.8727 47.9969L47.0662 47.8386ZM47.545 50.7114V50.9614C47.3347 50.9614 47.1157 50.8273 46.975 50.5669C46.8359 50.3096 46.767 49.9249 46.8173 49.372L47.0662 49.3947L47.3152 49.4173C47.2697 49.9178 47.3404 50.1914 47.4148 50.3292C47.4876 50.4638 47.5558 50.4614 47.545 50.4614V50.7114ZM47.0662 49.3947L46.9678 49.6245C46.8258 49.5636 46.6068 49.4663 46.4101 49.3715C46.3119 49.3242 46.2167 49.2763 46.1385 49.2331C46.0715 49.196 45.9849 49.1457 45.9319 49.0926L46.1086 48.9159L46.2854 48.7391C46.2802 48.7339 46.3024 48.7524 46.3803 48.7954C46.4469 48.8322 46.5327 48.8756 46.6271 48.9211C46.8154 49.0118 47.0274 49.106 47.1647 49.1649L47.0662 49.3947ZM48.1435 49.1553L48.3902 49.1147C48.4313 49.3652 48.4601 49.7098 48.4311 50.0285C48.4167 50.1878 48.387 50.3508 48.3311 50.4957C48.2758 50.6394 48.187 50.7852 48.0418 50.881L47.9041 50.6724L47.7664 50.4637C47.7936 50.4458 47.8305 50.4042 47.8645 50.316C47.898 50.2291 47.9212 50.1157 47.9332 49.9833C47.9572 49.7185 47.9333 49.4182 47.8968 49.1958L48.1435 49.1553ZM47.9041 50.6724L48.0418 50.881C47.879 50.9885 47.6845 51.0076 47.4803 50.9529L47.545 50.7114L47.6097 50.4699C47.7054 50.4955 47.7463 50.477 47.7664 50.4637L47.9041 50.6724ZM47.9041 50.6724L48.1524 50.6425C48.1765 50.8437 48.1619 51.1525 48.0447 51.4569C47.9252 51.7671 47.6943 52.0822 47.2844 52.2579L47.1859 52.0281L47.0875 51.7983C47.3479 51.6867 47.4961 51.49 47.5781 51.2772C47.6623 51.0586 47.6717 50.8333 47.6559 50.7022L47.9041 50.6724ZM47.1859 52.0281L47.434 52.0591C47.4104 52.2481 47.324 52.5361 47.1052 52.7215C46.9891 52.8199 46.8394 52.8855 46.6594 52.8885C46.4838 52.8915 46.2984 52.8348 46.1043 52.7239L46.2283 52.5069L46.3524 52.2898C46.4935 52.3705 46.5903 52.3896 46.6509 52.3886C46.7071 52.3876 46.7473 52.3694 46.7819 52.3401C46.8644 52.2702 46.9216 52.1273 46.9379 51.9971L47.1859 52.0281ZM46.2283 52.5069L46.4581 52.6054C46.3844 52.7773 46.2241 53.0175 45.9656 53.1376C45.8307 53.2003 45.6728 53.2279 45.4997 53.196C45.3291 53.1646 45.1591 53.0784 44.991 52.9383L45.151 52.7463L45.3111 52.5542C45.4302 52.6535 45.5236 52.692 45.5902 52.7043C45.6542 52.7161 45.7073 52.7063 45.7549 52.6841C45.8615 52.6346 45.9525 52.5158 45.9985 52.4084L46.2283 52.5069ZM45.151 52.7463L45.3111 52.9384C45.1646 53.0604 44.9134 53.2039 44.6254 53.226C44.3154 53.2497 43.9884 53.129 43.7459 52.7653L43.954 52.6266L44.162 52.4879C44.3025 52.6987 44.4544 52.7376 44.5872 52.7274C44.7422 52.7156 44.8981 52.6317 44.991 52.5542L45.151 52.7463ZM47.1859 52.0281L46.9368 52.0488C46.9183 51.8271 46.8568 51.4975 46.7389 51.2317C46.6129 50.9473 46.4743 50.8417 46.348 50.8417V50.5917V50.3417C46.7964 50.3417 47.0568 50.7149 47.196 51.029C47.3435 51.3616 47.4136 51.7502 47.4351 52.0073L47.1859 52.0281ZM46.348 50.5917V50.8417C46.286 50.8417 46.2066 50.8625 46.1588 50.9027C46.1386 50.9197 46.1233 50.9404 46.114 50.97C46.1042 51.0008 46.097 51.0543 46.1144 51.1411L45.8692 51.1902L45.6241 51.2392C45.5607 50.9224 45.6514 50.6761 45.837 50.5201C46.0027 50.3807 46.2106 50.3417 46.348 50.3417V50.5917ZM45.8692 51.1902L45.6456 51.302C45.6604 51.3315 45.6698 51.3163 45.6112 51.2989C45.5611 51.2839 45.4907 51.2776 45.4163 51.2881C45.2593 51.3102 45.1755 51.3852 45.1568 51.4786L44.9116 51.4296L44.6665 51.3806C44.7436 50.9952 45.0786 50.8307 45.3466 50.793C45.4847 50.7735 45.6282 50.7822 45.7539 50.8197C45.8712 50.8546 46.0182 50.9291 46.0928 51.0784L45.8692 51.1902ZM43.954 48.9159L44.204 48.9159L44.204 51.5493L43.954 51.5493L43.704 51.5493L43.704 48.9159L43.954 48.9159ZM43.954 51.5493L44.204 51.5493L44.204 52.6266L43.954 52.6266L43.704 52.6266L43.704 51.5493L43.954 51.5493ZM44.9116 51.4296L44.7616 51.6296C44.7193 51.5978 44.6257 51.5528 44.5122 51.5509C44.4086 51.5491 44.2745 51.5824 44.1308 51.7261L43.954 51.5493L43.7772 51.3725C44.0166 51.1331 44.2815 51.0468 44.521 51.0509C44.7506 51.0549 44.9444 51.1416 45.0616 51.2296L44.9116 51.4296ZM45.8692 51.1902L46.1104 51.1244L46.4695 52.4411L46.2283 52.5069L45.9871 52.5727L45.628 51.256L45.8692 51.1902ZM44.9116 51.4296L45.1576 51.3849L45.397 52.7016L45.151 52.7463L44.9051 52.791L44.6657 51.4743L44.9116 51.4296Z" fill="#0B0B0B"/>
<path id="Vector 590" d="M38.0887 47.9583L36.5925 49.1553L35.0962 50.3523C35.5442 50.6808 36.2606 51.7652 36.5925 53.8162C36.6577 54.2196 36.7081 54.6605 36.7387 55.1403C36.7603 55.4797 36.772 55.8386 36.772 56.2176C37.8493 55.6191 40.4827 53.8162 43.8343 53.8162C46.2284 53.8162 48.383 55.3797 50.8967 56.3373C50.8967 54.9807 51.1361 51.7887 52.5725 50.3523L49.6997 48.078" stroke="#0B0B0B" stroke-width="0.5"/>
<path id="Vector 591" d="M36.7387 55.1403C36.7603 55.4797 36.772 55.8386 36.772 56.2176L36.5326 67.5892M36.772 56.2176C35.9481 56.578 34.7643 56.7008 33.6598 56.7125M36.7387 55.1403C36.7081 54.6604 36.6577 54.2196 36.5924 53.8162C36.2606 51.7652 35.5442 50.6808 35.0962 50.3523C34.784 50.159 34.3224 49.9569 33.8164 49.8734C32.9642 49.7329 31.9863 49.9288 31.3855 51.0705L31.2658 53.8236M31.2658 53.8236C30.9466 54.0231 30.4757 54.5897 31.1461 55.26M36.5924 53.8162C35.6769 54.0011 34.6185 54.0436 33.6598 54.0207C32.6631 53.9969 31.7742 53.9024 31.2658 53.8236M31.1461 55.26C30.8668 55.4994 30.4997 56.0979 31.2657 56.5767M31.1461 55.26C32.0815 55.3971 34.5095 55.5651 36.7387 55.1403M31.2657 56.5767L32.4628 67.1104M31.2657 56.5767C31.8191 56.6505 32.7101 56.7226 33.6598 56.7125M33.6598 56.7125L34.2583 64.3572L34.378 66.3922M33.6598 54.0207L33.8164 49.8734" stroke="#0B0B0B" stroke-width="0.5"/>
<path id="Vector 610" d="M50.93 55.1403C50.9084 55.4797 50.8967 55.8386 50.8967 56.2176L51.1361 67.5892M50.8967 56.2176C51.7206 56.578 52.9044 56.7008 54.0089 56.7125M50.93 55.1403C50.9606 54.6604 51.011 54.2196 51.0763 53.8162C51.4081 51.7652 52.1245 50.6808 52.5725 50.3523C52.8847 50.159 53.3463 49.9569 53.8523 49.8734C54.7045 49.7329 55.6824 49.9288 56.2832 51.0705L56.4029 53.8236M56.4029 53.8236C56.7221 54.0231 57.193 54.5897 56.5226 55.26M51.0763 53.8162C51.9918 54.0011 53.0502 54.0436 54.0089 54.0207C55.0056 53.9969 55.8945 53.9024 56.4029 53.8236M56.5226 55.26C56.8019 55.4994 57.169 56.0979 56.403 56.5767M56.5226 55.26C55.5872 55.3971 53.1592 55.5651 50.93 55.1403M56.403 56.5767L55.206 67.1104M56.403 56.5767C55.8496 56.6505 54.9586 56.7226 54.0089 56.7125M54.0089 56.7125L53.4104 64.3572L53.2907 66.3922M54.0089 54.0207L53.8523 49.8734" stroke="#0B0B0B" stroke-width="0.5"/>
<path id="Vector 592" d="M37.7296 58.0131H36.772V59.4495H37.7296V58.0131Z" stroke="#0B0B0B" stroke-width="0.5"/>
<path id="Vector 611" d="M49.9394 58.0131H50.897V59.4495H49.9394V58.0131Z" stroke="#0B0B0B" stroke-width="0.5"/>
<path id="Vector 593" d="M36.7721 59.6889L36.5327 67.3498L36.7721 67.7089C37.2241 66.312 37.5554 62.4565 37.4903 59.6889H36.7721Z" fill="#0B0B0B" stroke="#0B0B0B" stroke-width="0.239401"/>
<path id="Vector 612" d="M50.8968 59.6889L51.1362 67.3498L50.8968 67.7089C50.4448 66.312 50.1135 62.4565 50.1786 59.6889H50.8968Z" fill="#0B0B0B" stroke="#0B0B0B" stroke-width="0.239401"/>
<g id="Vector 606">
<path d="M36.772 58.0131V56.3373L37.2508 55.9782L37.3553 56.8143C37.4154 57.2921 37.4805 57.8086 37.4902 57.8934C37.4902 57.8934 37.4902 58.0131 36.772 58.0131Z" fill="#0B0B0B"/>
<path d="M37.4902 57.8934L37.2508 55.9782L36.772 56.3373V58.0131C37.4902 58.0131 37.4902 57.8934 37.4902 57.8934C37.4726 57.7395 37.2727 56.1647 37.2508 55.9782" stroke="#0B0B0B" stroke-width="0.239401"/>
</g>
<g id="Vector 613">
<path d="M50.897 58.0131V56.3373L50.4182 56.2176L50.292 57.101C50.2387 57.4658 50.1873 57.8187 50.1788 57.8934C50.1788 57.8934 50.1788 58.0131 50.897 58.0131Z" fill="#0B0B0B"/>
<path d="M50.1788 57.8934L50.4182 56.2176L50.897 56.3373V58.0131C50.1788 58.0131 50.1788 57.8934 50.1788 57.8934C50.1963 57.7395 50.3962 56.4041 50.4182 56.2176" stroke="#0B0B0B" stroke-width="0.239401"/>
</g>
<g id="Vector 598">
<path d="M51.2558 67.5892C51.4474 66.8231 52.6796 66.3922 53.3978 66.3922C55.4368 67.0718 56.0085 67.9726 56.0545 68.6665C56.0733 68.9502 56.0042 69.1994 55.9115 69.3847H50.525C50.3387 69.3102 50.2431 69.0281 50.2027 68.6665C50.1393 68.0984 50.5841 67.3342 50.6573 66.871L50.8968 67.8286L51.2558 67.5892Z" fill="#0B0B0B"/>
<path d="M53.3978 66.3922L53.4357 66.2786L53.4172 66.2725H53.3978V66.3922ZM51.2558 67.5892L51.3222 67.6888C51.347 67.6723 51.3647 67.6471 51.372 67.6182L51.2558 67.5892ZM50.8968 67.8286L50.7806 67.8576L50.8219 68.0224L50.9632 67.9282L50.8968 67.8286ZM50.6573 66.871L50.7734 66.8419L50.539 66.8523L50.6573 66.871ZM50.525 69.3847L50.4805 69.4958L50.5019 69.5044H50.525V69.3847ZM55.9115 69.3847V69.5044H55.9855L56.0186 69.4382L55.9115 69.3847ZM50.2027 68.6665L50.0837 68.6798L50.2027 68.6665ZM56.0545 68.6665L56.1739 68.6586V68.6586L56.0545 68.6665ZM53.3978 66.3922V66.2725C53.0192 66.2725 52.5139 66.385 52.0773 66.5956C51.6451 66.8041 51.2486 67.1247 51.1397 67.5602L51.2558 67.5892L51.372 67.6182C51.4546 67.2876 51.77 67.0097 52.1813 66.8112C52.5883 66.6149 53.0582 66.5119 53.3978 66.5119V66.3922ZM51.2558 67.5892L51.1894 67.4896L50.8304 67.729L50.8968 67.8286L50.9632 67.9282L51.3222 67.6888L51.2558 67.5892ZM50.8968 67.8286L51.0129 67.7995L50.7734 66.8419L50.6573 66.871L50.5412 66.9L50.7806 67.8576L50.8968 67.8286ZM50.525 69.3847V69.5044H55.9115V69.3847V69.265H50.525V69.3847ZM50.6573 66.871L50.539 66.8523C50.5226 66.9568 50.4842 67.0828 50.4335 67.2275C50.4084 67.2993 50.3809 67.3739 50.3523 67.4515C50.3238 67.5287 50.2943 67.6088 50.2659 67.6897C50.1538 68.0085 50.0486 68.3654 50.0837 68.6798L50.2027 68.6665L50.3217 68.6532C50.2933 68.3995 50.3789 68.0903 50.4917 67.7691C50.5195 67.6901 50.5483 67.6118 50.5769 67.5343C50.6054 67.4571 50.6336 67.3806 50.6595 67.3066C50.7108 67.16 50.7554 67.0168 50.7755 66.8897L50.6573 66.871ZM50.2027 68.6665L50.0837 68.6798C50.1045 68.8659 50.1402 69.0395 50.1987 69.1794C50.2564 69.3174 50.3442 69.4413 50.4805 69.4958L50.525 69.3847L50.5694 69.2736C50.5195 69.2536 50.4664 69.1992 50.4196 69.0871C50.3736 68.9769 50.3412 68.8287 50.3217 68.6532L50.2027 68.6665ZM55.9115 69.3847L56.0186 69.4382C56.1194 69.2365 56.1943 68.9663 56.1739 68.6586L56.0545 68.6665L55.935 68.6744C55.9523 68.9342 55.8889 69.1623 55.8044 69.3312L55.9115 69.3847ZM56.0545 68.6665L56.1739 68.6586C56.1232 67.8928 55.4935 66.9646 53.4357 66.2786L53.3978 66.3922L53.36 66.5057C55.3801 67.1791 55.8938 68.0524 55.935 68.6744L56.0545 68.6665ZM50.2027 68.6665V68.7862H56.0545V68.6665V68.5468H50.2027V68.6665Z" fill="#0B0B0B"/>
</g>
<path id="Subtract" d="M43.9534 30.451C44.4306 30.4313 45.1274 30.6078 45.7054 31.1864C46.2834 31.7656 46.7277 32.7336 46.7356 34.2704C46.8605 34.4732 46.9882 34.7919 46.9944 35.1503C47.0011 35.5402 46.8655 35.9729 46.4466 36.3397L45.8558 36.9315C45.8028 36.9845 45.7182 36.9903 45.6585 36.9452C45.5992 36.8995 45.5823 36.8159 45.6194 36.7509C45.7654 36.495 46.1258 35.6234 45.97 34.6434C45.2881 34.2331 43.6101 33.705 41.9173 34.6571C41.8731 34.7658 41.852 34.9081 41.8558 35.078C41.8601 35.2668 41.8937 35.4779 41.9427 35.6903C42.0406 36.1149 42.1979 36.5315 42.2962 36.7675C42.322 36.8294 42.3038 36.9016 42.2513 36.9432C42.1984 36.9848 42.1239 36.9858 42.0696 36.9462C40.6409 35.8981 40.7606 34.7441 41.1644 34.2626C41.0935 33.6273 41.1385 32.7072 41.5081 31.9286C41.7008 31.523 41.9834 31.1518 42.386 30.8827C42.7881 30.6142 43.3019 30.4533 43.9466 30.452C43.9479 30.452 43.9501 30.4521 43.9515 30.452L43.9534 30.451ZM41.4563 34.8817C41.374 34.873 41.3001 34.9332 41.2913 35.0155V35.0184C41.2911 35.0203 41.2906 35.0233 41.2903 35.0262C41.2897 35.0331 41.2884 35.0437 41.2874 35.0555C41.2855 35.0797 41.2831 35.114 41.2815 35.1522C41.2786 35.2264 41.278 35.3291 41.2923 35.4149C41.3065 35.5001 41.3411 35.6015 41.3685 35.6747C41.3826 35.7126 41.3957 35.7466 41.4056 35.7704C41.4105 35.7822 41.4154 35.792 41.4183 35.7987C41.4196 35.8018 41.4204 35.8047 41.4212 35.8065L41.4222 35.8094H41.4231C41.4566 35.8849 41.5448 35.9197 41.6204 35.8866C41.6961 35.8533 41.7307 35.7641 41.6976 35.6884L41.6966 35.6874C41.696 35.686 41.6948 35.6833 41.6937 35.6805C41.6912 35.6749 41.6873 35.6656 41.6829 35.6551C41.6741 35.6338 41.6623 35.6037 41.6497 35.5702C41.6232 35.4992 41.5974 35.42 41.5882 35.3651C41.5792 35.3111 41.5785 35.2338 41.5813 35.1639C41.5827 35.1308 41.5845 35.1011 41.5862 35.08C41.5871 35.0697 41.5886 35.0602 41.5892 35.0546V35.0467C41.5978 34.9645 41.5386 34.8905 41.4563 34.8817ZM46.4524 34.8817C46.3702 34.8905 46.311 34.9645 46.3196 35.0467V35.0546C46.3202 35.0602 46.3217 35.0697 46.3226 35.08C46.3242 35.1011 46.3261 35.1308 46.3274 35.1639C46.3302 35.2338 46.3295 35.3111 46.3206 35.3651C46.3114 35.42 46.2856 35.4992 46.2591 35.5702C46.2465 35.6038 46.2347 35.6338 46.2259 35.6551C46.2215 35.6657 46.2176 35.6748 46.2151 35.6805C46.214 35.6833 46.2128 35.686 46.2122 35.6874L46.2112 35.6884C46.1781 35.7641 46.2126 35.8533 46.2884 35.8866C46.364 35.9195 46.4523 35.8849 46.4856 35.8094H46.4866L46.4876 35.8065C46.4884 35.8047 46.4892 35.8018 46.4905 35.7987C46.4934 35.792 46.4983 35.7822 46.5032 35.7704C46.5131 35.7466 46.5261 35.7126 46.5403 35.6747C46.5677 35.6015 46.6022 35.5001 46.6165 35.4149C46.6308 35.3291 46.6302 35.2264 46.6272 35.1522C46.6257 35.114 46.6233 35.0797 46.6214 35.0555C46.6204 35.0437 46.6191 35.0331 46.6185 35.0262C46.6182 35.0233 46.6177 35.0203 46.6175 35.0184V35.0155C46.6087 34.9332 46.5347 34.8731 46.4524 34.8817ZM46.1702 33.6971C44.0088 32.7149 42.5136 33.288 41.7288 33.701C41.6564 33.7398 41.6283 33.8303 41.6663 33.9032C41.7049 33.9763 41.7962 34.004 41.8694 33.9657C42.6008 33.5808 43.9953 33.0377 46.0462 33.9696C46.1215 34.0038 46.21 33.9705 46.2444 33.8954C46.2786 33.82 46.2456 33.7314 46.1702 33.6971Z" fill="#0B0B0B"/>
<path id="Subtract_2" d="M42.2059 36.684C42.2499 36.6985 42.2863 36.7331 42.3016 36.7787C42.3606 36.9554 42.4856 37.2108 42.6786 37.4506C42.9644 37.8053 43.3868 38.1126 43.955 38.1127H43.9677V38.1136C44.2796 38.1405 44.8922 38.0243 45.2987 37.4574C45.4235 37.2831 45.5315 37.0628 45.6054 36.7875L45.6259 36.7426C45.6531 36.7024 45.6993 36.6763 45.7499 36.6761H46.3485L46.3661 36.6771C47.0804 36.7589 48.1669 37.0338 49.1151 37.5951C50.0644 38.1572 50.8945 39.0198 51.0458 40.2797C51.0466 40.2869 51.047 40.2949 51.0468 40.3021L50.9286 44.309C49.2692 44.6303 48.0198 44.4283 47.5057 44.2592L47.5761 41.6185C47.5782 41.5359 47.5121 41.4667 47.4296 41.4642C47.347 41.4623 47.2785 41.5281 47.2763 41.6107L47.202 44.3636L47.1591 45.9877C46.9996 46.0691 46.8478 46.1702 46.7216 46.2963C46.6634 46.3549 46.6631 46.4507 46.7216 46.5092C46.78 46.5668 46.8751 46.567 46.9335 46.5092C47.0501 46.3926 47.2008 46.2955 47.369 46.2181C47.8118 46.0148 48.3483 45.9545 48.6229 45.9545C48.7053 45.9541 48.7721 45.8865 48.7723 45.8041C48.7723 45.7215 48.7054 45.6541 48.6229 45.6537C48.3646 45.6537 47.9007 45.7021 47.4628 45.8578L47.497 44.5726C48.0988 44.7493 49.3299 44.9122 50.9159 44.6166C50.8713 45.4068 50.7014 46.4483 50.3134 47.348C49.8847 48.3413 49.1719 49.2017 48.038 49.3051C47.9857 49.3097 47.9342 49.2859 47.9032 49.2435L46.9452 47.9271C46.9268 47.9017 46.917 47.8706 46.9169 47.8392V47.0941C46.59 46.9363 46.0931 46.7817 45.5819 46.7894C45.0331 46.7979 44.4751 46.9916 44.078 47.5648C44.0528 47.601 44.0116 47.6252 43.9677 47.6293C43.9238 47.633 43.8798 47.6172 43.8485 47.5863C43.6044 47.3422 43.1531 47.0222 42.6063 46.8676C42.0838 46.72 41.4776 46.7243 40.8729 47.0853V48.0785C40.8728 48.1115 40.861 48.1441 40.8407 48.1703L40.0028 49.2474C39.9723 49.2863 39.9242 49.3082 39.8749 49.3051C39.2062 49.2604 38.2993 48.7211 37.6259 47.348C37.2876 46.6582 37.006 45.7546 36.8397 44.5883C38.4996 44.9242 39.791 44.7549 40.412 44.5726L40.4462 45.8578C40.0083 45.702 39.5445 45.6537 39.286 45.6537C39.2034 45.6539 39.1366 45.7214 39.1366 45.8041C39.1369 45.8865 39.2035 45.9542 39.286 45.9545C39.5608 45.9545 40.0972 46.0147 40.5399 46.2181C40.7083 46.2956 40.8588 46.3925 40.9755 46.5092C41.0338 46.567 41.1289 46.5668 41.1874 46.5092C41.2456 46.4507 41.2455 46.3548 41.1874 46.2963C41.0611 46.1701 40.9095 46.0691 40.7499 45.9877L40.7069 44.3636L40.6327 41.6107C40.6305 41.5281 40.5619 41.4624 40.4794 41.4642C40.3967 41.4666 40.3307 41.5359 40.3329 41.6185L40.4032 44.2592C39.8707 44.4344 38.5491 44.6448 36.7997 44.2719C36.6682 43.1744 36.634 41.8585 36.743 40.2875L36.745 40.2699C36.9558 39.1737 38.2186 36.971 41.5477 36.6771L41.5604 36.6761H42.1591L42.2059 36.684ZM46.162 37.0511C46.0879 37.0882 46.0576 37.1782 46.0946 37.2523C46.2688 37.6008 46.3203 38.118 46.3124 38.6517C46.3057 39.1006 46.2555 39.5427 46.2167 39.8744L45.3036 39.6722L45.2274 39.6547L45.1698 39.7074L43.954 40.8119L42.7382 39.7074L42.6796 39.6537L42.6014 39.6732L41.7753 39.8793C41.6821 39.5728 41.6592 39.1229 41.6776 38.6449C41.6983 38.1085 41.7689 37.5642 41.828 37.2094C41.8413 37.128 41.7862 37.0503 41.705 37.0365C41.6233 37.0229 41.5459 37.079 41.5321 37.1605C41.4716 37.5237 41.3991 38.0807 41.3778 38.6332C41.3569 39.1777 41.3838 39.7474 41.5419 40.1166L41.5927 40.2347L41.7167 40.2035L42.5966 39.9828L43.8534 41.1263L43.954 41.2181L44.0555 41.1263L45.3134 39.9818L46.3153 40.2045L46.4774 40.2406L46.497 40.0756C46.5367 39.7381 46.6041 39.2031 46.6122 38.6566C46.6202 38.1155 46.5719 37.5349 46.3632 37.1176C46.3262 37.0438 46.2359 37.0146 46.162 37.0511Z" fill="#0B0B0B"/>
</g>
<path id="Vector 548" d="M18.3994 69.4H81.5994" stroke="#0B0B0B" stroke-width="0.5" stroke-linecap="round" stroke-linejoin="round"/>
<path id="Vector 575" d="M61.475 50.8526L61.4749 69.3847H62.8983L62.8984 50.8526H61.475Z" fill="#0B0B0B" stroke="#0B0B0B" stroke-width="0.359102" stroke-linecap="round" stroke-linejoin="round"/>
<path id="Vector 578" d="M70.1577 49.4292L60.4784 49.4292C60.0853 49.4292 59.7667 49.7478 59.7667 50.1409C59.7667 50.5339 60.0853 50.8526 60.4784 50.8526L70.1577 50.8526C70.5507 50.8526 70.8694 50.5339 70.8694 50.1409C70.8694 49.7478 70.5507 49.4292 70.1577 49.4292Z" fill="#0B0B0B" stroke="#0B0B0B" stroke-width="0.359102" stroke-linecap="round" stroke-linejoin="round"/>
<path id="Vector 576" d="M64.6064 50.8526V69.3765H66.0299V50.8526H64.6064Z" fill="#0B0B0B" stroke="#0B0B0B" stroke-width="0.359102" stroke-linecap="round" stroke-linejoin="round"/>
<path id="Vector 577" d="M67.738 50.8526V69.3344H69.1615V50.8526H67.738Z" fill="#0B0B0B" stroke="#0B0B0B" stroke-width="0.359102" stroke-linecap="round" stroke-linejoin="round"/>
</g>
</g>
</g>
</svg>
