<svg width="517" height="127" viewBox="0 0 517 127" fill="none" xmlns="http://www.w3.org/2000/svg">
<path d="M180.091 71.64L187.381 70.09V10.65L179.311 9.1V0H202.421V31.85C204.191 29.27 206.341 27.26 208.901 25.83C211.441 24.4 214.271 23.68 217.371 23.68C223.231 23.68 227.821 25.62 231.161 29.51C234.481 33.39 236.141 39.38 236.141 47.49V70.09L243.401 71.64V80.7H214.531V71.64L221.051 70.09V47.38C221.051 43.04 220.291 39.96 218.751 38.15C217.211 36.35 214.921 35.45 211.881 35.45C209.781 35.45 207.941 35.82 206.371 36.58C204.821 37.34 203.491 38.4 202.411 39.79V70.09L208.931 71.64V80.7H180.081V71.64H180.091ZM272.191 81.79C264.121 81.79 257.681 79.19 252.841 74.02C248.021 68.85 245.601 62.28 245.601 54.32V52.25C245.601 43.93 247.901 37.08 252.451 31.71C257.021 26.32 263.151 23.66 270.851 23.68C278.411 23.68 284.271 25.96 288.441 30.51C292.611 35.07 294.711 41.23 294.711 48.98V57.21H261.281L261.171 57.51C261.451 61.2 262.691 64.24 264.881 66.62C267.071 69 270.041 70.19 273.801 70.19C277.141 70.19 279.931 69.86 282.141 69.18C284.351 68.51 286.751 67.45 289.381 66L293.461 75.31C291.151 77.15 288.161 78.68 284.491 79.92C280.821 81.16 276.721 81.79 272.201 81.79H272.191ZM270.851 35.33C268.061 35.33 265.851 36.39 264.231 38.53C262.611 40.67 261.621 43.49 261.231 46.97L261.391 47.22H279.911V45.88C279.911 42.68 279.151 40.12 277.651 38.2C276.151 36.29 273.891 35.34 270.851 35.34V35.33ZM300.101 71.64L307.341 70.09V35.39L299.321 33.84V24.73H321.411L322.081 32.91C323.391 30.01 325.081 27.75 327.151 26.13C329.221 24.51 331.621 23.69 334.341 23.69C335.131 23.69 335.981 23.76 336.871 23.88C337.731 24 338.481 24.14 339.061 24.32L337.451 38.08L331.251 37.92C329.041 37.92 327.211 38.36 325.761 39.21C324.311 40.08 323.221 41.31 322.461 42.88V70.09L329.701 71.64V80.7H300.111V71.64H300.101ZM340.701 52.2C340.701 43.85 343.031 37.01 347.711 31.68C352.371 26.35 358.831 23.68 367.081 23.68C375.331 23.68 381.821 26.35 386.501 31.66C391.161 36.96 393.511 43.81 393.511 52.2V53.28C393.511 61.7 391.161 68.55 386.501 73.85C381.821 79.15 375.381 81.8 367.181 81.8C358.981 81.8 352.371 79.15 347.701 73.85C343.021 68.55 340.691 61.7 340.691 53.28V52.2H340.701ZM355.801 53.27C355.801 58.37 356.701 62.47 358.481 65.56C360.281 68.65 363.181 70.19 367.181 70.19C371.181 70.19 373.931 68.64 375.731 65.55C377.551 62.44 378.451 58.35 378.451 53.28V52.2C378.451 47.22 377.531 43.18 375.711 40.03C373.871 36.9 371.001 35.33 367.081 35.33C363.161 35.33 360.281 36.9 358.481 40.03C356.701 43.17 355.801 47.22 355.801 52.2V53.28V53.27ZM424.001 81.79C415.931 81.79 409.491 79.19 404.651 74.02C399.831 68.85 397.411 62.28 397.411 54.32V52.25C397.411 43.93 399.711 37.08 404.261 31.71C408.831 26.32 414.961 23.66 422.661 23.68C430.221 23.68 436.081 25.96 440.251 30.51C444.421 35.07 446.521 41.23 446.521 48.98V57.21H413.101L412.991 57.51C413.271 61.2 414.511 64.24 416.701 66.62C418.891 69 421.861 70.19 425.621 70.19C428.961 70.19 431.751 69.86 433.961 69.18C436.171 68.51 438.571 67.45 441.201 66L445.281 75.31C442.971 77.15 439.981 78.68 436.311 79.92C432.641 81.16 428.541 81.79 424.021 81.79H424.001ZM422.661 35.33C419.871 35.33 417.661 36.39 416.041 38.53C414.421 40.67 413.431 43.49 413.041 46.97L413.201 47.22H431.721V45.88C431.721 42.68 430.961 40.12 429.461 38.2C427.961 36.29 425.701 35.34 422.661 35.34V35.33ZM496.451 43.97H486.321L484.711 36.98C483.691 36.17 482.381 35.46 480.811 34.91C479.241 34.36 477.511 34.08 475.621 34.08C472.951 34.08 470.851 34.68 469.301 35.86C467.761 37.06 466.991 38.54 466.991 40.35C466.991 42.04 467.731 43.44 469.221 44.57C470.701 45.68 473.651 46.67 478.101 47.54C485.041 48.92 490.181 50.95 493.511 53.61C496.871 56.29 498.541 59.97 498.541 64.66C498.541 69.69 496.371 73.81 492.041 77C487.711 80.18 482.011 81.79 474.951 81.79C470.641 81.79 466.671 81.15 463.071 79.9C459.471 78.63 456.271 76.83 453.481 74.48L453.321 61.93H463.881L465.951 69.22C466.851 69.98 468.071 70.53 469.621 70.9C471.171 71.25 472.801 71.45 474.481 71.45C477.551 71.45 479.901 70.88 481.491 69.79C483.101 68.68 483.911 67.18 483.911 65.29C483.911 63.63 483.101 62.2 481.471 61C479.851 59.78 476.861 58.72 472.521 57.79C465.931 56.45 460.951 54.45 457.601 51.82C454.231 49.17 452.551 45.59 452.551 41.03C452.551 36.47 454.491 32.29 458.341 28.9C462.211 25.51 467.721 23.8 474.851 23.8C479.191 23.8 483.311 24.4 487.191 25.57C491.061 26.74 494.111 28.24 496.321 30.07L496.461 43.98L496.451 43.97Z" fill="white"/>
<path d="M25.3299 76.56C29.4299 76.56 33.0499 75.38 36.1899 73.03C39.3299 70.7 40.8999 67.43 40.8999 63.26H46.3699L46.4799 63.56C46.6599 68.73 44.5899 73.06 40.2999 76.56C36.0099 80.04 31.0099 81.79 25.3299 81.79C17.7399 81.79 11.8599 79.18 7.68993 73.95C3.49993 68.72 1.41992 62 1.41992 53.8V51.63C1.41992 43.49 3.49993 36.8 7.68993 31.55C11.8599 26.31 17.7199 23.68 25.2799 23.68C29.5899 23.68 33.5399 24.49 37.1299 26.12C40.7099 27.74 43.6299 29.95 45.8699 32.74L46.1199 44.96H40.8599L39.8699 35.02C38.2099 33.17 36.1399 31.68 33.6899 30.61C31.2199 29.52 28.4299 28.97 25.2799 28.97C19.2799 28.97 14.8299 31.12 11.9499 35.41C9.06992 39.7 7.63992 45.1 7.63992 51.64V53.81C7.63992 60.43 9.06992 65.87 11.9299 70.14C14.7899 74.43 19.2599 76.57 25.3299 76.57V76.56ZM68.5799 24.72L69.3599 34.03V34.7C70.9499 31.26 73.0999 28.56 75.8599 26.61C78.5999 24.67 81.8499 23.68 85.6099 23.68C86.3999 23.68 87.1599 23.75 87.9099 23.87C88.6499 23.99 89.2699 24.12 89.7499 24.26L88.9199 30.05L84.3299 29.73C80.4299 29.73 77.2299 30.83 74.7199 33.01C72.2299 35.2 70.4299 38.22 69.3699 42.05V75.46L77.7899 76.13V80.69H54.7799V76.13L63.1999 75.46V30L54.7799 29.33V24.72H68.5899H68.5799ZM94.5099 76.14L102.93 75.47V30L94.5099 29.33V24.72H109.09V75.47L117.51 76.14V80.7H94.4999V76.14H94.5099ZM109.09 8.69H102.93V0H109.09V8.69ZM148.99 76.56C153.09 76.56 156.7 75.37 159.85 73.03C162.99 70.69 164.57 67.43 164.57 63.26H170.04L170.15 63.56C170.33 68.73 168.26 73.07 163.97 76.56C159.68 80.04 154.68 81.79 149 81.79C141.41 81.79 135.53 79.17 131.36 73.95C127.18 68.72 125.09 62 125.09 53.8V51.63C125.09 43.49 127.18 36.8 131.36 31.55C135.53 26.31 141.39 23.68 148.95 23.68C153.26 23.68 157.21 24.49 160.8 26.12C164.38 27.74 167.3 29.95 169.54 32.74L169.79 44.96H164.53L163.54 35.02C161.88 33.17 159.81 31.69 157.36 30.61C154.89 29.52 152.1 28.97 148.95 28.97C142.95 28.97 138.5 31.12 135.62 35.41C132.74 39.7 131.31 45.11 131.31 51.64V53.81C131.31 60.43 132.75 65.87 135.6 70.14C138.46 74.43 142.93 76.57 149 76.57L148.99 76.56Z" fill="white"/>
<path d="M6.65453 124.365L8.96453 114.6C8.5212 113.41 8.08953 112.196 7.66953 110.96C7.24953 109.7 6.8412 108.451 6.44453 107.215C6.0712 105.955 5.70953 104.73 5.35953 103.54C5.00953 102.326 4.68286 101.183 4.37953 100.11H7.31953C7.7862 102.07 8.3112 104.1 8.89453 106.2C9.5012 108.276 10.1545 110.225 10.8545 112.045C11.6479 111.158 12.4645 110.213 13.3045 109.21C14.1679 108.206 15.0079 107.191 15.8245 106.165C16.6645 105.115 17.4579 104.076 18.2045 103.05C18.9745 102.023 19.6512 101.043 20.2345 100.11H23.4545C22.6379 101.206 21.7629 102.35 20.8295 103.54C19.9195 104.706 18.9629 105.908 17.9595 107.145C16.9795 108.381 15.9645 109.63 14.9145 110.89C13.8645 112.126 12.7912 113.363 11.6945 114.6L9.38453 124.365H6.65453ZM25.6505 124.785C24.5072 124.785 23.4572 124.551 22.5005 124.085C21.5672 123.595 20.8205 122.883 20.2605 121.95C19.7005 121.016 19.4205 119.873 19.4205 118.52C19.4205 116.42 19.7122 114.588 20.2955 113.025C20.9022 111.438 21.6838 110.12 22.6405 109.07C23.6205 107.996 24.7055 107.191 25.8955 106.655C27.0855 106.118 28.2755 105.85 29.4655 105.85C30.6322 105.85 31.6822 106.095 32.6155 106.585C33.5488 107.051 34.2955 107.751 34.8555 108.685C35.4155 109.595 35.6955 110.726 35.6955 112.08C35.6955 114.18 35.4038 116.023 34.8205 117.61C34.2372 119.196 33.4555 120.526 32.4755 121.6C31.5188 122.65 30.4455 123.443 29.2555 123.98C28.0655 124.516 26.8638 124.785 25.6505 124.785ZM25.8255 122.475C26.4788 122.475 27.1438 122.335 27.8205 122.055C28.5205 121.775 29.1738 121.366 29.7805 120.83C30.4105 120.27 30.9705 119.581 31.4605 118.765C31.9505 117.948 32.3355 117.003 32.6155 115.93C32.9188 114.833 33.0705 113.62 33.0705 112.29C33.0705 110.936 32.7088 109.91 31.9855 109.21C31.2622 108.51 30.3638 108.16 29.2905 108.16C28.6372 108.16 27.9722 108.3 27.2955 108.58C26.6188 108.86 25.9655 109.28 25.3355 109.84C24.7055 110.376 24.1455 111.053 23.6555 111.87C23.1655 112.686 22.7805 113.643 22.5005 114.74C22.2205 115.813 22.0805 117.015 22.0805 118.345C22.0805 119.698 22.4422 120.725 23.1655 121.425C23.8888 122.125 24.7755 122.475 25.8255 122.475ZM43.7111 124.785C42.2644 124.785 41.1444 124.528 40.3511 124.015C39.5577 123.478 39.0094 122.766 38.7061 121.88C38.4261 120.993 38.3211 119.99 38.3911 118.87C38.4611 117.726 38.6477 116.548 38.9511 115.335L41.1561 106.235H43.7811L41.7861 114.425C41.5527 115.405 41.3427 116.373 41.1561 117.33C40.9694 118.263 40.8994 119.126 40.9461 119.92C41.0161 120.69 41.2844 121.308 41.7511 121.775C42.2411 122.218 43.0227 122.44 44.0961 122.44C45.1461 122.44 46.0677 122.23 46.8611 121.81C47.6777 121.39 48.4477 120.783 49.1711 119.99C49.1711 119.57 49.2061 119.115 49.2761 118.625C49.3694 118.111 49.4744 117.598 49.5911 117.085C49.7311 116.571 49.8477 116.105 49.9411 115.685L52.2861 106.235H54.8761L52.1461 117.365C51.9594 118.158 51.8194 118.928 51.7261 119.675C51.6561 120.398 51.6794 121.133 51.7961 121.88C51.9127 122.603 52.1461 123.373 52.4961 124.19L49.9061 124.575C49.7661 124.295 49.6377 123.98 49.5211 123.63C49.4277 123.28 49.3461 122.918 49.2761 122.545C48.4827 123.315 47.6311 123.886 46.7211 124.26C45.8111 124.61 44.8077 124.785 43.7111 124.785ZM56.6282 124.365L60.7582 107.075C61.6449 106.725 62.6366 106.433 63.7332 106.2C64.8299 105.943 65.9149 105.815 66.9882 105.815C67.5249 105.815 68.0499 105.85 68.5632 105.92C69.0999 105.99 69.5899 106.118 70.0332 106.305L69.3332 108.615C68.8666 108.475 68.3999 108.37 67.9332 108.3C67.4666 108.206 66.9766 108.16 66.4632 108.16C65.8799 108.16 65.2966 108.206 64.7132 108.3C64.1299 108.393 63.5582 108.533 62.9982 108.72L59.2182 124.365H56.6282ZM85.4064 124.785C83.9598 124.785 82.7464 124.505 81.7664 123.945C80.7864 123.361 80.0514 122.556 79.5614 121.53C79.0714 120.48 78.8264 119.255 78.8264 117.855C78.8264 116.268 79.0714 114.751 79.5614 113.305C80.0748 111.858 80.7981 110.575 81.7314 109.455C82.6881 108.335 83.8431 107.448 85.1964 106.795C86.5731 106.141 88.1364 105.815 89.8864 105.815C90.5631 105.815 91.2164 105.873 91.8464 105.99C92.4764 106.083 93.0831 106.235 93.6664 106.445L92.6164 108.755C92.1031 108.545 91.5781 108.393 91.0414 108.3C90.5281 108.206 90.0148 108.16 89.5014 108.16C88.2881 108.16 87.1914 108.416 86.2114 108.93C85.2314 109.42 84.3914 110.108 83.6914 110.995C82.9914 111.858 82.4548 112.861 82.0814 114.005C81.7081 115.125 81.5214 116.315 81.5214 117.575C81.5214 119.068 81.8598 120.258 82.5364 121.145C83.2364 122.008 84.3564 122.44 85.8964 122.44C86.8531 122.44 87.7748 122.3 88.6614 122.02C89.5714 121.716 90.1898 121.448 90.5164 121.215L90.7614 123.525C90.2948 123.828 89.5831 124.108 88.6264 124.365C87.6698 124.645 86.5964 124.785 85.4064 124.785ZM94.6019 124.365L98.7319 107.075C99.6185 106.725 100.61 106.433 101.707 106.2C102.804 105.943 103.889 105.815 104.962 105.815C105.499 105.815 106.024 105.85 106.537 105.92C107.074 105.99 107.564 106.118 108.007 106.305L107.307 108.615C106.84 108.475 106.374 108.37 105.907 108.3C105.44 108.206 104.95 108.16 104.437 108.16C103.854 108.16 103.27 108.206 102.687 108.3C102.104 108.393 101.532 108.533 100.972 108.72L97.1919 124.365H94.6019ZM108.001 124.365L112.376 106.235H114.966L110.591 124.365H108.001ZM115.001 101.895C114.511 101.895 114.126 101.755 113.846 101.475C113.566 101.171 113.426 100.775 113.426 100.285C113.426 99.8647 113.519 99.5031 113.706 99.1997C113.893 98.8964 114.126 98.6631 114.406 98.4997C114.686 98.3364 114.978 98.2547 115.281 98.2547C115.748 98.2547 116.133 98.4064 116.436 98.7097C116.739 99.0131 116.891 99.4214 116.891 99.9347C116.891 100.331 116.786 100.681 116.576 100.985C116.389 101.288 116.156 101.521 115.876 101.685C115.596 101.825 115.304 101.895 115.001 101.895ZM123.961 124.785C122.514 124.785 121.301 124.505 120.321 123.945C119.341 123.361 118.606 122.556 118.116 121.53C117.626 120.48 117.381 119.255 117.381 117.855C117.381 116.268 117.626 114.751 118.116 113.305C118.629 111.858 119.353 110.575 120.286 109.455C121.243 108.335 122.398 107.448 123.751 106.795C125.128 106.141 126.691 105.815 128.441 105.815C129.118 105.815 129.771 105.873 130.401 105.99C131.031 106.083 131.638 106.235 132.221 106.445L131.171 108.755C130.658 108.545 130.133 108.393 129.596 108.3C129.083 108.206 128.569 108.16 128.056 108.16C126.843 108.16 125.746 108.416 124.766 108.93C123.786 109.42 122.946 110.108 122.246 110.995C121.546 111.858 121.009 112.861 120.636 114.005C120.263 115.125 120.076 116.315 120.076 117.575C120.076 119.068 120.414 120.258 121.091 121.145C121.791 122.008 122.911 122.44 124.451 122.44C125.408 122.44 126.329 122.3 127.216 122.02C128.126 121.716 128.744 121.448 129.071 121.215L129.316 123.525C128.849 123.828 128.138 124.108 127.181 124.365C126.224 124.645 125.151 124.785 123.961 124.785ZM133.122 124.365L139.527 97.6597L142.257 97.2047L138.267 113.795C139.083 113.235 139.912 112.616 140.752 111.94C141.615 111.24 142.443 110.54 143.237 109.84C144.03 109.116 144.742 108.44 145.372 107.81C146.025 107.18 146.538 106.655 146.912 106.235H150.027C149.583 106.795 148.977 107.46 148.207 108.23C147.46 108.976 146.643 109.746 145.757 110.54C144.87 111.333 144.007 112.068 143.167 112.745C142.35 113.421 141.638 113.958 141.032 114.355C142.058 115.148 143.027 116.128 143.937 117.295C144.87 118.461 145.698 119.675 146.422 120.935C147.145 122.171 147.693 123.315 148.067 124.365H145.232C144.602 122.988 143.902 121.716 143.132 120.55C142.362 119.383 141.533 118.333 140.647 117.4C139.783 116.466 138.897 115.685 137.987 115.055L135.712 124.365H133.122ZM157.945 124.785C156.218 124.785 154.841 124.505 153.815 123.945C152.788 123.361 152.053 122.568 151.61 121.565C151.166 120.538 150.945 119.36 150.945 118.03C150.945 116.513 151.178 115.031 151.645 113.585C152.111 112.138 152.788 110.831 153.675 109.665C154.585 108.498 155.681 107.565 156.965 106.865C158.271 106.165 159.753 105.815 161.41 105.815C163.043 105.815 164.315 106.246 165.225 107.11C166.135 107.95 166.59 109.081 166.59 110.505C166.59 112.231 166.041 113.561 164.945 114.495C163.848 115.428 162.32 116.081 160.36 116.455C158.4 116.828 156.125 117.073 153.535 117.19C153.535 117.283 153.535 117.388 153.535 117.505C153.535 117.598 153.535 117.691 153.535 117.785C153.581 118.811 153.745 119.675 154.025 120.375C154.305 121.051 154.795 121.565 155.495 121.915C156.218 122.265 157.21 122.44 158.47 122.44C159.286 122.44 160.103 122.335 160.92 122.125C161.76 121.891 162.541 121.553 163.265 121.11L163.51 123.42C162.74 123.84 161.865 124.166 160.885 124.4C159.928 124.656 158.948 124.785 157.945 124.785ZM153.85 114.95C156.44 114.88 158.47 114.67 159.94 114.32C161.41 113.97 162.448 113.491 163.055 112.885C163.685 112.278 164 111.555 164 110.715C164 109.828 163.731 109.175 163.195 108.755C162.681 108.311 161.993 108.09 161.13 108.09C159.94 108.09 158.855 108.405 157.875 109.035C156.895 109.665 156.055 110.505 155.355 111.555C154.678 112.581 154.176 113.713 153.85 114.95ZM173.691 124.785C172.478 124.785 171.521 124.586 170.821 124.19C170.145 123.77 169.666 123.198 169.386 122.475C169.13 121.751 169.025 120.923 169.071 119.99C169.118 119.033 169.27 118.018 169.526 116.945L173.341 100.985L176.071 100.53L174.706 106.235H181.006L180.481 108.44H174.146L172.081 117.05C171.871 117.936 171.755 118.8 171.731 119.64C171.708 120.456 171.883 121.133 172.256 121.67C172.653 122.183 173.353 122.44 174.356 122.44C175.08 122.44 175.71 122.358 176.246 122.195C176.806 122.031 177.39 121.821 177.996 121.565L178.206 123.84C177.576 124.096 176.865 124.318 176.071 124.505C175.301 124.691 174.508 124.785 173.691 124.785ZM189.827 124.365L193.992 106.9C194.459 106.736 195.007 106.585 195.637 106.445C196.267 106.281 196.932 106.153 197.632 106.06C198.356 105.943 199.056 105.885 199.732 105.885C200.712 105.885 201.611 106.025 202.427 106.305C203.244 106.561 203.909 107.028 204.422 107.705C205.566 107.028 206.592 106.561 207.502 106.305C208.412 106.025 209.311 105.885 210.197 105.885C211.294 105.885 212.274 106.06 213.137 106.41C214.001 106.736 214.677 107.32 215.167 108.16C215.681 108.976 215.937 110.108 215.937 111.555C215.937 112.138 215.891 112.745 215.797 113.375C215.727 114.005 215.611 114.635 215.447 115.265L213.242 124.365H210.652L212.612 116.14C212.776 115.393 212.939 114.646 213.102 113.9C213.266 113.153 213.347 112.441 213.347 111.765C213.347 110.388 213.009 109.455 212.332 108.965C211.679 108.475 210.839 108.23 209.812 108.23C209.322 108.23 208.704 108.323 207.957 108.51C207.234 108.673 206.359 109.081 205.332 109.735C205.402 110.015 205.449 110.306 205.472 110.61C205.519 110.913 205.542 111.228 205.542 111.555C205.542 112.138 205.496 112.745 205.402 113.375C205.309 114.005 205.181 114.635 205.017 115.265L202.847 124.365H200.222L202.182 116.14C202.369 115.393 202.532 114.646 202.672 113.9C202.836 113.153 202.917 112.441 202.917 111.765C202.917 110.388 202.591 109.455 201.937 108.965C201.284 108.475 200.444 108.23 199.417 108.23C198.904 108.23 198.356 108.276 197.772 108.37C197.212 108.463 196.687 108.568 196.197 108.685L192.417 124.365H189.827ZM225.317 124.82C224.267 124.82 223.31 124.575 222.447 124.085C221.583 123.595 220.883 122.848 220.347 121.845C219.833 120.841 219.577 119.57 219.577 118.03C219.577 116.186 219.868 114.518 220.452 113.025C221.058 111.531 221.898 110.248 222.972 109.175C224.068 108.101 225.352 107.273 226.822 106.69C228.292 106.106 229.89 105.815 231.617 105.815C232.083 105.815 232.573 105.838 233.087 105.885C233.6 105.931 234.113 106.013 234.627 106.13C235.14 106.246 235.642 106.41 236.132 106.62L233.507 117.365C233.32 118.158 233.18 118.928 233.087 119.675C233.017 120.398 233.028 121.133 233.122 121.88C233.238 122.603 233.472 123.373 233.822 124.19L231.232 124.575C231.092 124.295 230.963 123.98 230.847 123.63C230.753 123.28 230.672 122.93 230.602 122.58C229.808 123.326 228.968 123.886 228.082 124.26C227.195 124.633 226.273 124.82 225.317 124.82ZM225.667 122.475C226.577 122.475 227.428 122.265 228.222 121.845C229.015 121.401 229.773 120.783 230.497 119.99C230.52 119.36 230.613 118.648 230.777 117.855C230.94 117.061 231.103 116.338 231.267 115.685L233.087 108.44C232.69 108.346 232.317 108.276 231.967 108.23C231.617 108.183 231.267 108.16 230.917 108.16C229.563 108.16 228.35 108.428 227.277 108.965C226.203 109.478 225.282 110.19 224.512 111.1C223.765 111.986 223.193 112.99 222.797 114.11C222.423 115.23 222.237 116.385 222.237 117.575C222.237 118.765 222.388 119.721 222.692 120.445C222.995 121.168 223.403 121.693 223.917 122.02C224.43 122.323 225.013 122.475 225.667 122.475ZM243.623 124.785C242.41 124.785 241.453 124.586 240.753 124.19C240.076 123.77 239.598 123.198 239.318 122.475C239.061 121.751 238.956 120.923 239.003 119.99C239.05 119.033 239.201 118.018 239.458 116.945L243.273 100.985L246.003 100.53L244.638 106.235H250.938L250.413 108.44H244.078L242.013 117.05C241.803 117.936 241.686 118.8 241.663 119.64C241.64 120.456 241.815 121.133 242.188 121.67C242.585 122.183 243.285 122.44 244.288 122.44C245.011 122.44 245.641 122.358 246.178 122.195C246.738 122.031 247.321 121.821 247.928 121.565L248.138 123.84C247.508 124.096 246.796 124.318 246.003 124.505C245.233 124.691 244.44 124.785 243.623 124.785ZM257.295 124.785C256.082 124.785 255.125 124.586 254.425 124.19C253.748 123.77 253.27 123.198 252.99 122.475C252.733 121.751 252.628 120.923 252.675 119.99C252.722 119.033 252.873 118.018 253.13 116.945L256.945 100.985L259.675 100.53L258.31 106.235H264.61L264.085 108.44H257.75L255.685 117.05C255.475 117.936 255.358 118.8 255.335 119.64C255.312 120.456 255.487 121.133 255.86 121.67C256.257 122.183 256.957 122.44 257.96 122.44C258.683 122.44 259.313 122.358 259.85 122.195C260.41 122.031 260.993 121.821 261.6 121.565L261.81 123.84C261.18 124.096 260.468 124.318 259.675 124.505C258.905 124.691 258.112 124.785 257.295 124.785ZM272.789 124.785C271.062 124.785 269.685 124.505 268.659 123.945C267.632 123.361 266.897 122.568 266.454 121.565C266.01 120.538 265.789 119.36 265.789 118.03C265.789 116.513 266.022 115.031 266.489 113.585C266.955 112.138 267.632 110.831 268.519 109.665C269.429 108.498 270.525 107.565 271.809 106.865C273.115 106.165 274.597 105.815 276.254 105.815C277.887 105.815 279.159 106.246 280.069 107.11C280.979 107.95 281.434 109.081 281.434 110.505C281.434 112.231 280.885 113.561 279.789 114.495C278.692 115.428 277.164 116.081 275.204 116.455C273.244 116.828 270.969 117.073 268.379 117.19C268.379 117.283 268.379 117.388 268.379 117.505C268.379 117.598 268.379 117.691 268.379 117.785C268.425 118.811 268.589 119.675 268.869 120.375C269.149 121.051 269.639 121.565 270.339 121.915C271.062 122.265 272.054 122.44 273.314 122.44C274.13 122.44 274.947 122.335 275.764 122.125C276.604 121.891 277.385 121.553 278.109 121.11L278.354 123.42C277.584 123.84 276.709 124.166 275.729 124.4C274.772 124.656 273.792 124.785 272.789 124.785ZM268.694 114.95C271.284 114.88 273.314 114.67 274.784 114.32C276.254 113.97 277.292 113.491 277.899 112.885C278.529 112.278 278.844 111.555 278.844 110.715C278.844 109.828 278.575 109.175 278.039 108.755C277.525 108.311 276.837 108.09 275.974 108.09C274.784 108.09 273.699 108.405 272.719 109.035C271.739 109.665 270.899 110.505 270.199 111.555C269.522 112.581 269.02 113.713 268.694 114.95ZM282.795 124.365L286.925 107.075C287.812 106.725 288.804 106.433 289.9 106.2C290.997 105.943 292.082 105.815 293.155 105.815C293.692 105.815 294.217 105.85 294.73 105.92C295.267 105.99 295.757 106.118 296.2 106.305L295.5 108.615C295.034 108.475 294.567 108.37 294.1 108.3C293.634 108.206 293.144 108.16 292.63 108.16C292.047 108.16 291.464 108.206 290.88 108.3C290.297 108.393 289.725 108.533 289.165 108.72L285.385 124.365H282.795ZM300.394 124.785C299.391 124.785 298.423 124.668 297.489 124.435C296.556 124.225 295.728 123.921 295.004 123.525L296.089 121.25C296.906 121.67 297.653 121.973 298.329 122.16C299.006 122.346 299.764 122.44 300.604 122.44C301.398 122.44 302.109 122.335 302.739 122.125C303.393 121.891 303.906 121.553 304.279 121.11C304.653 120.666 304.839 120.095 304.839 119.395C304.839 118.881 304.723 118.461 304.489 118.135C304.279 117.785 303.976 117.481 303.579 117.225C303.183 116.968 302.739 116.723 302.249 116.49C301.619 116.163 300.978 115.813 300.324 115.44C299.671 115.043 299.123 114.541 298.679 113.935C298.259 113.305 298.049 112.488 298.049 111.485C298.049 110.155 298.364 109.081 298.994 108.265C299.648 107.425 300.499 106.806 301.549 106.41C302.623 106.013 303.766 105.815 304.979 105.815C305.796 105.815 306.578 105.885 307.324 106.025C308.094 106.165 308.806 106.375 309.459 106.655L308.444 108.895C307.954 108.661 307.383 108.475 306.729 108.335C306.099 108.195 305.446 108.125 304.769 108.125C304.069 108.125 303.393 108.23 302.739 108.44C302.109 108.626 301.596 108.953 301.199 109.42C300.803 109.863 300.604 110.458 300.604 111.205C300.604 111.741 300.733 112.196 300.989 112.57C301.269 112.92 301.631 113.223 302.074 113.48C302.518 113.736 302.984 113.993 303.474 114.25C304.151 114.576 304.781 114.938 305.364 115.335C305.971 115.708 306.449 116.186 306.799 116.77C307.173 117.33 307.359 118.053 307.359 118.94C307.359 120.27 307.044 121.366 306.414 122.23C305.784 123.093 304.933 123.735 303.859 124.155C302.809 124.575 301.654 124.785 300.394 124.785Z" fill="white"/>
<path d="M500.019 14.16H496.859V12.52H505.129V14.16H501.959V23.46H500.019V14.16Z" fill="white"/>
<path d="M506.949 12.52H509.139L511.079 17.87C511.199 18.22 511.319 18.57 511.429 18.93C511.539 19.29 511.659 19.65 511.779 20.01H511.849C511.969 19.65 512.089 19.29 512.189 18.93C512.299 18.57 512.409 18.21 512.529 17.87L514.419 12.52H516.629V23.46H514.839V18.46C514.839 18.2 514.839 17.92 514.869 17.62C514.889 17.32 514.909 17.01 514.929 16.71C514.949 16.4 514.979 16.1 515.009 15.81C515.039 15.51 515.069 15.24 515.089 14.98H515.019L514.129 17.52L512.339 22.44H511.189L509.379 17.52L508.509 14.98H508.439C508.459 15.24 508.489 15.51 508.519 15.81C508.549 16.11 508.579 16.41 508.599 16.71C508.619 17.01 508.649 17.32 508.669 17.62C508.689 17.92 508.699 18.2 508.699 18.46V23.46H506.939V12.52H506.949Z" fill="white"/>
</svg>
